<?xml version="1.0" encoding="utf-8"?>
<!-- Designed by Vexels.com - 2019 All Rights Reserved - https://vexels.com/terms-and-conditions/  -->
<svg version="1.1" id="Layer_1" xmlns="http://www.w3.org/2000/svg" xmlns:xlink="http://www.w3.org/1999/xlink" x="0px" y="0px"
	 viewBox="0 0 1200 1200" style="enable-background:new 0 0 1200 1200;" xml:space="preserve">
<style type="text/css">
	.st0{fill:#E5E5E5;}
	.st1{opacity:0.6;fill:#FFFFFF;enable-background:new    ;}
	.st2{fill:#FFFFFF;}
	.st3{fill:#F59586;}
	.st4{fill:#D91921;}
	.st5{opacity:0.15;enable-background:new    ;}
</style>
<g>
	<g>
		<path class="st0" d="M1100.7,399.8c-12.7-33.5-24.5-77-48.9-106c-24.5-29-50.7-60.7-50.7-60.7s-113.2,19-149.4,40.8
			c-36.2,21.7-80.6,66.1-80.6,66.1l-19.9,45.3c0,0-21.7,8.2-34.4,9.1s-48.6-0.7-48.6-0.7l34.1-22c0,0,26.3-19,15.4-21.7
			c-10.9-2.7-36.2-6.3-42.6-3.6c-6.3,2.7-57.1,22.6-57.1,25.4s-29,43.5-29,43.5L525.6,428c0,0-28.1-95.1-66.1-124.1
			s-121.4-54.3-121.4-54.3l-97.9-8.2c0,0-80.5,86.1-81.4,88.8c-0.9,2.7-55.2,88.8-54.3,92.4l-6.3,48l52.1,44.3l50.8-7.1
			c-0.5-0.2-0.8-0.3-0.8-0.3l2,0.2l2.4-0.3c9.2-2.5,56.9-16.5,67.6-35c11.8-20.5,28.1-51.8,29-57.1s9.5-54.8,9.5-54.8l80.9,18.8
			c0,0,29,25.5,31.6,27.2c2.6,1.8,30.7,50,30.7,50s-52.7,36-60.6,43.9s-48.3,76.4-54.4,70.2l0,0L299.9,642l0.4,0.3l-12,91.7
			l19.9,1.8c0,0,2.7,49.8,2.7,54.3s13.6,24.5,14.5,20.8s10.9-33.5,11.8-27.2s30.8,38,28.1,36.2c-2.7-1.8,31.2,27.9,31.2,27.9
			s69.4,30,68.3,33l71.7,25l55.8,53.5l78.5-2.3c5.8-22.9,19.1-18.2,20.6-20.4c3.6-5.4,24.5-37.1,24.5-37.1s39.4-15.1,41.9-10.3
			c1.2,2.4,38.3-9.7,38.3-9.7s29.7-18.6,31.2-19c4.2-1.1,45.3-22.6,59.8-41.7c14.5-19,24.8-43.5,24.8-43.5s-3.6,31.4,10.6,31.7
			c14.2,0.3,9.1-19,10.9-23.5c1.8-4.5-0.9-60.7-0.9-60.7s25.4,11.8,28.1-2.7c2.7-14.5-19-77-19-77L916,580c0,0-15.4-44.4-32.6-59.8
			c-17.2-15.4-37.1-31.7-43.5-38c-6.3-6.3-32.6-29-32.6-29s24.5-43.5,27.2-48s32.6-31.7,32.6-31.7l71.6-24.5c0,0,25.8,60.3,29,66.1
			c3.2,5.8,21.8,39.7,37.6,50.7c15.8,10.9,83.9,30.1,83.9,30.1S1113.4,433.3,1100.7,399.8z"/>
	</g>
	<g>
		<path class="st1" d="M738.5,892c-2.9,0.4,103.6-33.1,138.4-84.2c30.7-44.9,34.6-64.5,37.4-75.5c0.7,4.9,5.7,40.5,7.3,22.2
			s-7.5-63-9-69.3c8.5,7.8,16.9-3.1,11.1-24.6c-5.9-21.5-21.8-71-47.4-103.8c-22.9-29.3-77.1-78-77.1-78s7.2-20.9,9.8-19.6
			s82.8,71,83.4,73.6c0.7,2.6,31.9,63.2,31.9,63.2s33.9,97.8,33.2,104.9s-16.3,30-15.6,31.9c0.7,2-5.9,39.1-5.9,39.1
			s-11.6,36.6-13.6,35.3c-2-1.4-19-19.6-19-19.6l-11.7,23.5C891.6,811.2,847.9,876.4,738.5,892z"/>
		<path class="st1" d="M509.6,891.8c2.9,0.4-95.2-28.5-130.1-79.6c-30.7-44.9-26.4-67.3-29.2-78.3c-0.7,4.9-16.9,28.9-20.8,8.7
			c-6.7-34.2,15.4-68.6,19.4-75.8c-8.5,7.8-37.2,41.2-33.1,6.3c2.7-22.1,17.4-68.5,62.7-128.4c22.5-29.7,88-69,88-69
			s-14.1-22.9-16.7-21.5c-2.6,1.3-83.1,77-83.8,79.6c-0.7,2.6-37.5,69.2-37.5,69.2s-35,88-34.3,95.2s8.6,26,7.9,28
			s5.9,39.1,5.9,39.1s11.6,36.6,13.6,35.3s19-19.6,19-19.6l11.7,23.5C352.4,804.4,400.1,876.1,509.6,891.8z"/>
		<path class="st1" d="M520.8,453.9c0,0,45.6-6.4,46.4-8.3s25.3-31.3,18.8-30.9c-6.4,0.4-66,13.6-66,13.6L520.8,453.9z"/>
		<path class="st1" d="M708.5,424.9c0,0-19.4,16.7-17.7,17.7s43.3,16.6,43,13.2c-0.4-3.4,3.8-26,2.3-26.4S708.5,424.9,708.5,424.9z"
			/>
		<path d="M628,924c-83.7,0-162.5-26.8-221.8-75.5c-59.7-49-92.6-114.3-92.6-183.9s32.9-134.9,92.6-183.9
			c59.3-48.7,138.1-75.5,221.8-75.5s162.5,26.8,221.8,75.5c59.7,49,92.6,114.3,92.6,183.9c0,88.6-54,170.2-144.4,218.3
			c-13.6,7.2-29.5,10.9-44.9,14.4c-7.5,1.7-15.2,3.5-22.3,5.6c-2.2,0.7-4.2,2.4-6.5,4.4c-3.3,2.8-7.4,6.3-13.4,7.6
			C684,920.9,656.1,924,628,924z M628,420.2c-165.1,0-299.5,109.6-299.5,244.4S462.8,909,628,909c27,0,53.8-2.9,79.6-8.7
			c2.3-0.5,4.1-2,6.9-4.4c3-2.6,6.7-5.7,12-7.3c7.6-2.3,15.5-4.1,23.3-5.9c14.5-3.3,29.5-6.8,41.3-13.1
			c85.4-45.4,136.4-122,136.4-205C927.4,529.8,793.1,420.2,628,420.2z"/>
	</g>
	<g>
		<g>
			<path class="st0" d="M881.8,552.7c5.2,7.2,55.5,39.8,70.8,136.6s-24.8,12.1-24.8,12.1s19.7,45.8,6.3,89.2
				c-13.5,43.4-22.4-14.9-22.4-14.9S876.6,885,691.9,896.2"/>
		</g>
		<g>
			<path d="M881.8,552.7c0.9,1,2,1.7,3,2.5l3.1,2.4c2.1,1.6,4.1,3.2,6.2,4.8c4,3.3,7.9,6.8,11.7,10.5s7.3,7.6,10.7,11.7
				c3.4,4.1,6.6,8.3,9.6,12.7s5.9,8.9,8.5,13.5c2.7,4.6,5.1,9.4,7.4,14.2c1.1,2.4,2.2,4.8,3.3,7.3c1,2.5,2.1,4.9,3,7.4
				s1.9,5,2.8,7.5c0.9,2.5,1.7,5,2.5,7.6s1.6,5.1,2.3,7.7l2.1,7.7l1.8,7.8c0.6,2.6,1.1,5.2,1.6,7.8c1,5.2,1.9,10.4,2.7,15.7
				s1.4,10.6,1.8,16.2c0.2,2.8,0.3,5.6,0.2,8.7c-0.1,1.5-0.2,3.1-0.4,4.9c-0.1,0.9-0.3,1.8-0.5,2.9c-0.3,1-0.6,2.2-1.2,3.6
				c-0.6,1.4-1.5,3.1-3.5,5c-1,0.9-2.4,1.9-4.1,2.5c-1.6,0.6-3.4,0.9-4.9,0.8c-1.5,0-2.8-0.3-3.8-0.7c-1-0.3-1.9-0.7-2.6-1.1
				c-1.4-0.8-2.4-1.5-3.3-2.2c-1.7-1.4-2.9-2.7-4-3.9s-2.1-2.5-3-3.6c-3.5-4.8-6.3-9.5-9-14.2c-1.3-2.4-2.6-4.7-3.9-7.1
				c-1.3-2.4-2.4-4.7-3.7-7.3l19.3-8.7l0.5,1.3l0.5,1.2l0.9,2.3c0.5,1.5,1.1,3.1,1.6,4.6c1,3.1,1.9,6.2,2.7,9.3s1.5,6.3,2.2,9.4
				c0.6,3.2,1.1,6.3,1.6,9.5c0.4,3.2,0.8,6.4,1,9.6c0.3,3.2,0.4,6.5,0.5,9.7c0,3.3-0.1,6.5-0.3,9.8c-0.1,1.6-0.2,3.3-0.4,4.9
				c-0.1,1.6-0.4,3.3-0.6,4.9c-0.5,3.3-1.1,6.5-1.8,9.7c-0.4,1.6-0.8,3.2-1.3,4.8s-1,3.2-1.5,4.8c-1,3.1-2.2,6.2-3.7,9.5
				c-0.8,1.6-1.6,3.3-2.9,5.1c-0.6,0.9-1.3,1.9-2.3,2.9s-2.2,2.2-4.2,3.2c-1,0.5-2.2,1-3.6,1.3c-1.4,0.3-3,0.2-4.4-0.1
				s-2.6-0.8-3.6-1.4c-1-0.6-1.7-1.2-2.4-1.8c-1.3-1.2-2.1-2.3-2.7-3.3c-0.7-1-1.2-1.9-1.6-2.9c-1.8-3.6-2.7-6.8-3.6-10
				c-0.8-3.2-1.5-6.4-2-9.5c-0.6-3.2-1-6.2-1.4-9.5l14.1,1.1l-0.2,0.7l-0.2,0.6l-0.4,1.1l-0.9,2.1c-0.6,1.4-1.2,2.7-1.9,4
				c-1.3,2.6-2.7,5.2-4.2,7.7c-2.9,5-6.2,9.8-9.6,14.3c-6.9,9.2-14.7,17.5-23.1,25.1c-8.4,7.6-17.5,14.4-27,20.4
				c-4.8,3-9.6,5.9-14.6,8.5s-10,5.1-15.1,7.4c-5.1,2.3-10.3,4.4-15.5,6.4c-5.2,1.9-10.5,3.8-15.8,5.4c-5.3,1.7-10.7,3.1-16.1,4.4
				c-2.7,0.6-5.4,1.3-8.1,1.9l-4.1,0.9l-4.1,0.8c-5.4,1.1-10.9,2-16.4,2.8c-2.7,0.4-5.5,0.7-8.2,1.1l-8.2,0.9l-8.2,0.7l-8.3,0.6
				l-8.3,0.4l-8.3,0.2l8.2-0.9l8.2-1l8.2-1.2l8.1-1.3l8.1-1.5l8.1-1.6c5.4-1.2,10.7-2.4,16-3.8l4-1l3.9-1.1c2.6-0.7,5.2-1.6,7.8-2.3
				c2.6-0.8,5.2-1.7,7.8-2.5c2.6-0.9,5.1-1.8,7.7-2.8c5.1-1.9,10.1-3.9,15.1-6.1c5-2.2,9.9-4.5,14.7-7s9.5-5.1,14.1-7.9
				c4.6-2.8,9.1-5.7,13.5-8.8s8.7-6.3,12.8-9.8c4.1-3.4,8.1-7,11.9-10.7c3.8-3.7,7.4-7.6,10.8-11.7c3.4-4,6.7-8.2,9.7-12.6
				c3-4.3,5.8-8.8,8.3-13.4c1.2-2.3,2.4-4.6,3.5-7c0.5-1.2,1-2.3,1.5-3.5l0.7-1.7l0.3-0.8l0.2-0.7l8.5-25.6l5.6,26.7
				c0.6,2.7,1.3,5.6,2,8.4c0.8,2.8,1.6,5.5,2.5,8.1s2,5.1,3,6.8c0.3,0.4,0.5,0.8,0.7,1s0.4,0.3,0.2,0.2c-0.1-0.1-0.7-0.7-2.1-1
				c-0.7-0.2-1.5-0.2-2.2-0.1c-0.7,0.1-1.2,0.3-1.5,0.5c-0.7,0.4-0.7,0.5-0.7,0.4l0.4-0.7c0.4-0.7,0.9-1.8,1.3-2.9
				c0.9-2.3,1.7-4.9,2.5-7.6c0.3-1.3,0.7-2.6,1-4c0.3-1.3,0.6-2.7,0.8-4c0.5-2.7,0.9-5.4,1.1-8.2c0.1-1.4,0.3-2.8,0.3-4.1
				c0.1-1.4,0.1-2.8,0.2-4.2c0.1-2.8,0-5.6-0.1-8.4c-0.1-2.8-0.3-5.6-0.6-8.4c-0.3-2.8-0.7-5.6-1.1-8.4c-0.5-2.8-1-5.6-1.6-8.4
				c-0.6-2.8-1.2-5.5-2-8.3c-0.7-2.7-1.5-5.5-2.4-8.1c-0.4-1.3-0.9-2.7-1.4-4l-0.7-1.9l-0.7-1.7l19.3-8.7c1,2.1,2.1,4.4,3.3,6.6
				c1.1,2.2,2.3,4.4,3.5,6.5c2.4,4.3,4.9,8.5,7.5,12c0.6,0.9,1.3,1.7,1.9,2.4c0.6,0.7,1.2,1.3,1.5,1.5c0.1,0.1,0.2,0.2-0.1,0
				c-0.1-0.1-0.4-0.2-0.8-0.3c-0.4-0.1-1.1-0.3-1.9-0.3c-0.9,0-2,0.1-3,0.5s-1.9,1-2.4,1.5c-1.1,1-1.3,1.6-1.4,1.8
				c-0.1,0.2,0,0.1,0-0.1c0.1-0.2,0.1-0.5,0.2-0.9c0.1-0.8,0.2-1.8,0.3-2.8c0.1-2.1,0.1-4.4,0.1-6.8c-0.1-4.8-0.5-9.7-1.1-14.7
				c-0.5-5-1.1-10-1.8-15c-0.4-2.5-0.7-5-1.1-7.5l-1.3-7.4l-1.4-7.4c-0.5-2.5-1.1-4.9-1.6-7.3c-0.6-2.4-1.2-4.9-1.8-7.3
				c-0.6-2.4-1.3-4.8-2-7.3c-0.7-2.4-1.5-4.8-2.2-7.2l-2.4-7.1c-1.7-4.7-3.5-9.4-5.5-14c-1.9-4.6-4.2-9.2-6.4-13.7
				c-2.3-4.5-4.8-8.9-7.4-13.2c-2.6-4.3-5.5-8.5-8.5-12.7c-3-4.1-6.2-8.2-9.5-12.1c-1.7-2-3.3-3.9-5.1-5.9
				C885.1,556.8,883.2,554.9,881.8,552.7z"/>
		</g>
	</g>
	<g>
		<g>
			<path class="st0" d="M530.7,867.6c0,0,0.9,92.1,90.8,96.4c89.9,4.3,101.3-96.4,101.3-96.4"/>
		</g>
		<g>
			<path d="M530.7,867.6c0,0,0.2,1.2,0.7,3.3c0.5,2.2,1.4,5.3,2.5,9.2c1.2,3.9,2.8,8.6,4.9,13.8c2.1,5.2,4.8,10.9,8.2,16.6
				c3.4,5.8,7.6,11.7,12.7,17c5.1,5.4,11.1,10.3,17.9,14.3c3.4,2,7,3.7,10.8,5.3c0.9,0.4,1.9,0.7,2.9,1s1.9,0.7,2.9,1
				c2,0.6,4,1.1,6,1.7c2,0.5,4.1,0.8,6.2,1.3c1,0.2,2.1,0.3,3.2,0.5l3.2,0.4l1.6,0.2c0.5,0.1,1.1,0.1,1.6,0.1l3.2,0.2l1.6,0.1
				l0.8,0.1h0.2h0.1c-0.1,0,0.4,0-0.3,0h0.4h3.5l3.5,0.1c0.6,0,1.1,0,1.6,0l1.5-0.1c2-0.2,4-0.1,6.1-0.5c4.2-0.5,8.3-1.2,12.3-2.2
				c1-0.3,2-0.6,3-0.8c0.5-0.1,1-0.3,1.5-0.4l1.4-0.5c1.9-0.7,3.9-1.3,5.7-2.2c0.9-0.4,1.8-0.8,2.7-1.2s1.8-0.9,2.7-1.4
				s1.7-0.9,2.6-1.4c0.9-0.5,1.7-1,2.5-1.6c6.7-4.2,12.6-9.3,17.7-14.8c5.1-5.5,9.4-11.4,13-17.1c3.6-5.7,6.6-11.3,9.1-16.4
				c2.5-5.1,4.4-9.6,5.9-13.5c1.5-3.8,2.7-6.9,3.3-9c0.7-2.1,1.1-3.3,1.1-3.3s0.1,1.2,0.1,3.4s-0.1,5.6-0.5,9.8s-1.2,9.3-2.5,15.1
				s-3.2,12.3-6,19.1c-0.7,1.7-1.5,3.4-2.3,5.2c-0.8,1.7-1.8,3.5-2.7,5.3c-1,1.8-2,3.6-3.1,5.4c-1.2,1.8-2.3,3.6-3.5,5.4
				c-5.1,7.1-11.4,14.1-19.3,20c-1,0.7-2,1.5-3,2.2s-2.1,1.3-3.1,2c-1.1,0.6-2.1,1.4-3.2,1.9c-1.1,0.6-2.2,1.2-3.4,1.8
				c-4.5,2.4-9.3,4.3-14.3,5.7c-5,1.5-10,2.6-15.2,3.2c-2.5,0.4-5.3,0.5-8,0.7l-2,0.1c-0.7,0-1.4,0.1-1.9,0.1h-3.5l-3.5-0.1h-0.4
				c-0.8,0-0.3,0-0.5,0h-0.1h-0.2l-1-0.1l-1.9-0.2l-3.8-0.3c-0.6-0.1-1.3-0.1-1.9-0.2l-1.9-0.3c-2.5-0.4-5.1-0.7-7.5-1.3
				c-2.5-0.6-5-1.1-7.4-1.9c-2.4-0.8-4.9-1.5-7.3-2.4c-1.2-0.5-2.4-1-3.5-1.5c-1.2-0.5-2.4-0.9-3.5-1.5s-2.3-1.1-3.4-1.7
				c-1.1-0.6-2.2-1.1-3.3-1.8s-2.1-1.3-3.2-2c-0.5-0.3-1.1-0.6-1.6-1l-1.5-1.1c-8-5.7-14.7-12.5-19.9-19.7c-1.3-1.8-2.4-3.6-3.6-5.4
				c-1.1-1.8-2.1-3.6-3.1-5.4c-0.9-1.8-1.8-3.6-2.6-5.4c-0.7-1.8-1.6-3.5-2.2-5.3c-2.6-7-4.2-13.6-5.2-19.5s-1.4-11-1.4-15.3
				c-0.1-4.2,0.1-7.5,0.3-9.8C530.5,868.8,530.7,867.6,530.7,867.6z"/>
		</g>
	</g>
	<g>
		<path d="M548.1,793.6c-1.2,7.1-1.8,14.4-1.8,21.9c0,55.2,33.7,100,75.2,100s75.2-44.8,75.2-100c0-8.6-0.8-16.9-2.4-24.9
			C626.4,751.2,564.6,783.4,548.1,793.6z"/>
	</g>
	<g>
		<path d="M401.9,628.7c0,0,0,0.4,0,1.1c0,0.7,0,1.8,0.1,3.2s0.1,3,0.2,4.9s0.3,4,0.5,6.3s0.5,4.8,0.9,7.4c0.2,1.3,0.4,2.6,0.6,4
			c0.3,1.3,0.5,2.7,0.8,4.1c0.6,2.8,1.3,5.6,2.1,8.5c0.4,1.4,0.9,2.8,1.3,4.3c0.5,1.4,1,2.8,1.6,4.2l0.8,2.1c0.3,0.7,0.6,1.4,0.9,2
			c0.6,1.4,1.3,2.7,2,4c0.3,0.7,0.7,1.3,1.1,1.9c0.4,0.6,0.7,1.3,1.1,1.9c0.7,1.2,1.6,2.4,2.3,3.6c0.8,1.1,1.7,2.2,2.5,3.3
			c0.9,1,1.7,2.1,2.5,3c0.9,0.9,1.8,1.9,2.6,2.7c0.8,0.9,1.7,1.7,2.6,2.5c0.8,0.8,1.7,1.5,2.5,2.1c0.8,0.7,1.5,1.4,2.3,1.9
			c1.5,1.1,2.8,2.1,3.9,2.9c2.3,1.5,3.6,2.4,3.6,2.4s-1.5-0.4-4.1-1.4c-1.3-0.5-2.8-1.2-4.6-2c-0.9-0.4-1.8-1-2.7-1.5
			c-1-0.5-2-1.1-2.9-1.8c-1-0.7-2.1-1.4-3.1-2.2s-2.1-1.7-3.1-2.6c-1-1-2-2-3.1-3c-1-1.1-2-2.2-3-3.4c-1.9-2.4-3.7-5-5.3-7.7
			c-0.8-1.4-1.6-2.8-2.3-4.3c-0.7-1.4-1.4-2.9-2-4.4s-1.1-3-1.6-4.6c-0.5-1.5-0.9-3.1-1.3-4.6s-0.7-3.1-1-4.6s-0.5-3-0.7-4.5
			c-0.4-3-0.6-5.9-0.7-8.6c-0.1-2.7,0-5.3,0.1-7.7s0.4-4.5,0.6-6.5c0.2-1.9,0.6-3.6,0.9-4.9C401.4,630.2,401.9,628.7,401.9,628.7z"
			/>
	</g>
	<g>
		<path d="M866.1,622.2c0,0,0,0.5,0,1.5s0,2.4-0.1,4.1c-0.1,1.8-0.3,3.9-0.6,6.4s-0.7,5.3-1.4,8.3c-0.6,3-1.4,6.3-2.5,9.6
			c-1,3.4-2.3,6.9-3.7,10.5c-0.8,1.8-1.5,3.6-2.4,5.4c-0.4,0.9-0.9,1.8-1.3,2.7c-0.5,0.9-1,1.8-1.5,2.7c-0.9,1.8-2.1,3.5-3.1,5.3
			c-1.1,1.7-2.3,3.4-3.5,5.1c-2.5,3.3-5.1,6.5-7.9,9.4c-0.7,0.7-1.4,1.5-2.1,2.2c-0.7,0.7-1.5,1.4-2.2,2c-0.7,0.7-1.4,1.4-2.2,2
			s-1.5,1.3-2.2,1.9c-0.7,0.6-1.5,1.2-2.2,1.8c-0.8,0.6-1.5,1.1-2.3,1.7c-0.8,0.5-1.5,1.1-2.2,1.6c-0.8,0.5-1.5,1-2.3,1.5
			c-2.9,2-5.9,3.5-8.6,5c-1.4,0.7-2.7,1.3-4,1.9c-0.6,0.3-1.2,0.6-1.8,0.9c-0.6,0.2-1.2,0.5-1.8,0.7c-2.3,0.9-4.3,1.8-6,2.3
			c-3.4,1.1-5.3,1.7-5.3,1.7s1.9-0.8,5.1-2.2c0.4-0.2,0.8-0.4,1.3-0.6c0.4-0.2,0.9-0.4,1.4-0.7c1-0.5,2-1,3.1-1.5
			c0.6-0.3,1.1-0.6,1.7-0.8c0.6-0.3,1.2-0.7,1.8-1c1.2-0.7,2.5-1.4,3.8-2.1c2.6-1.6,5.4-3.3,8.2-5.3c0.7-0.5,1.4-1,2.2-1.5
			c0.7-0.6,1.4-1.1,2.1-1.7c0.7-0.6,1.4-1.1,2.2-1.7c0.7-0.6,1.4-1.2,2.1-1.8c0.7-0.6,1.4-1.2,2.1-1.9c0.7-0.6,1.4-1.3,2.1-2
			c0.7-0.7,1.4-1.4,2.1-2c0.7-0.7,1.3-1.4,2-2.2c2.7-2.9,5.2-6,7.6-9.2c1.2-1.6,2.3-3.3,3.4-4.9c1-1.7,2.2-3.4,3.1-5.1
			c2-3.4,3.7-6.9,5.3-10.3c1.5-3.5,2.9-6.8,4-10.1s2.1-6.4,2.9-9.3c1.6-5.9,2.5-10.9,3-14.4C866,624.2,866.1,622.2,866.1,622.2z"/>
	</g>
	<g>
		<path d="M594.6,761.3l-25.5-15.7c0,0,54.5-17.6,93.7,0l-14.5,11.7c0,0,8.9-14.8-4.5-11.7s-26.2,15.7-26.2,15.7
			s-24.1-24.7-28.2-15.7C585.2,754.7,594.6,761.3,594.6,761.3z"/>
	</g>
	<g>
		<path d="M530.7,808c0,0,0.4-0.7,1.3-2c0.5-0.6,1-1.4,1.8-2.3c0.4-0.4,0.8-0.9,1.2-1.4s0.9-1,1.4-1.6c2-2.2,4.6-4.7,7.8-7.4
			c1.6-1.3,3.4-2.6,5.3-4.1c1-0.7,2-1.3,3-2s2.1-1.4,3.2-2c1.1-0.6,2.3-1.3,3.4-2c1.2-0.7,2.4-1.3,3.6-1.9c1.3-0.6,2.5-1.2,3.8-1.8
			s2.7-1.1,4.1-1.7c1.4-0.5,2.8-1.1,4.2-1.6c1.5-0.4,2.9-0.9,4.4-1.4c1.5-0.4,3-1,4.6-1.3s3.1-0.7,4.7-1c0.8-0.2,1.6-0.3,2.4-0.5
			c0.8-0.2,1.6-0.4,2.4-0.4c1.6-0.2,3.3-0.4,4.9-0.7c0.8-0.1,1.7-0.2,2.5-0.3l1.3-0.2l1.3-0.1c1.7-0.1,3.4-0.2,5.1-0.3l2.6-0.1
			l1.3-0.1h0.3l0.1-0.1c0.1,0,0-0.1,0.2-0.1h0.2h0.6c1.6,0,3.3,0.1,4.9,0.2c1.7,0,3.3,0.1,5,0.1l5.1,0.3c6.9,0.3,13.6,1.1,20.3,2.1
			c6.7,1.1,13.2,2.5,19.3,4.4c6.2,1.7,12,4.1,17.4,6.3c5.3,2.4,10.3,4.9,14.7,7.3c4.4,2.4,8.4,4.8,11.8,7c3.5,2.2,6.4,4.1,8.9,5.7
			c2.5,1.6,4.3,2.9,5.6,3.8c1.3,0.9,2,1.4,2,1.4s-0.8-0.3-2.3-0.8s-3.7-1.2-6.4-2.2s-6.1-2.2-9.9-3.6c-1.9-0.7-3.9-1.5-6-2.3
			s-4.3-1.6-6.7-2.5c-4.6-1.7-9.7-3.4-15-5.1c-5.3-1.6-10.9-3.2-16.8-4.4c-2.9-0.7-6-1.2-9-1.7c-1.5-0.3-3.1-0.4-4.6-0.7
			c-1.6-0.2-3.1-0.5-4.7-0.7c-3.2-0.3-6.3-0.8-9.5-1c-3.2-0.3-6.4-0.5-9.6-0.6l-4.8-0.3c-1.6-0.1-3.3-0.1-4.9-0.1
			c-1.7,0-3.3-0.1-4.9-0.1H613h-0.2c0.2,0,0,0,0,0h-0.1h-0.3h-1.2h-2.3c-1.6,0-3.1,0.1-4.7,0.1H603l-1.2,0.1
			c-0.8,0.1-1.5,0.1-2.3,0.2c-1.5,0.1-3,0.2-4.6,0.4c-1.5,0.1-3,0.4-4.5,0.6c-1.5,0.2-2.9,0.4-4.4,0.6c-1.4,0.2-2.8,0.6-4.3,0.8
			c-1.4,0.3-2.8,0.6-4.2,0.8c-1.4,0.4-2.7,0.7-4,1.1c-1.3,0.4-2.7,0.6-3.9,1.1c-1.3,0.4-2.5,0.8-3.7,1.2c-2.5,0.7-4.8,1.8-7,2.6
			c-2.3,0.9-4.3,1.9-6.4,2.8c-2,1-3.9,1.9-5.6,2.9c-3.5,1.9-6.5,3.7-8.8,5.3c-2.4,1.6-4.2,3-5.4,3.9
			C531.3,807.5,530.7,808,530.7,808z"/>
	</g>
	<g>
		<path class="st2" d="M674.4,783.4c0,0-0.2,64.4-55.5,61s-55.5-58.3-55.5-58.3S596.9,766,674.4,783.4z"/>
		<path d="M623.1,848.4c-1.4,0-2.9,0-4.4-0.1c-58.3-3.6-59.1-61.6-59.1-62.2v-2.2l1.9-1.1c1.4-0.9,35.7-20.7,113.8-3.1l3,0.7v3.1
			c0,1.4-0.3,33.3-20.3,52C648.9,844.1,637.2,848.4,623.1,848.4z M567.5,788.4c0.7,10.2,6.5,49.3,51.7,52.1
			c13.8,0.8,25.1-2.7,33.5-10.7c14.1-13.2,17.1-35.2,17.7-43.3C607.7,773,575.4,784.8,567.5,788.4z"/>
	</g>
	<g>
		<path d="M614.9,776.2c0,0-0.2,0.7-0.4,1.9c-0.3,1.2-0.6,3-1,5.2s-0.7,4.7-1.1,7.4c-0.3,2.7-0.6,5.6-0.8,8.6
			c-0.1,1.5-0.2,2.9-0.2,4.4c0,1.4-0.1,2.9,0,4.2c0,1.4,0,2.7,0.1,4s0.1,2.5,0.2,3.6c0.1,1.1,0.2,2.1,0.3,3s0.2,1.7,0.3,2.3
			c0.2,1.3,0.3,2,0.3,2s-0.2-0.7-0.5-2c-0.2-0.6-0.3-1.4-0.5-2.3c-0.2-0.9-0.4-1.9-0.6-3c-0.2-1.1-0.4-2.3-0.6-3.6
			c-0.2-1.3-0.3-2.6-0.5-4s-0.3-2.8-0.4-4.3c-0.1-1.5-0.2-3-0.2-4.4c-0.1-3-0.1-6-0.1-8.8c0.1-2.8,0.2-5.4,0.3-7.7
			c0.1-2.2,0.3-4.1,0.5-5.4c0.1-0.7,0.1-1.2,0.2-1.5c0-0.4,0.1-0.5,0.1-0.5L614.9,776.2z"/>
	</g>
	<g>
		<path class="st3" d="M572.1,866.2c0,0,46.6-29.6,91.9,20c0,0-15.6,16.6-45.1,17.2C589.5,904.1,574.7,872.8,572.1,866.2z"/>
		<path d="M618,907.4c-32.7,0-47.9-35.6-49.5-39.7l-1.2-3l2.7-1.7c0.5-0.3,12.7-8,30.8-9.2c16.7-1.2,41.6,3.1,66.1,29.9l2.4,2.7
			l-2.5,2.6c-0.7,0.7-17.1,17.8-47.8,18.5C618.7,907.4,618.4,907.4,618,907.4z M577.1,868c4.3,9,17.7,32.2,41.8,31.6
			c20.6-0.5,34.1-9.2,39.6-13.6C623,849.8,587.3,863,577.1,868z"/>
	</g>
	<g>
		<path d="M593,653.9c0,0,0-0.6,0-1.8c0-1.1,0-2.8,0-4.9c0-2.1-0.1-4.7-0.3-7.6c-0.1-2.9-0.4-6.2-0.7-9.8c-0.4-3.6-0.8-7.4-1.4-11.5
			c-0.3-2-0.6-4.1-1-6.2c-0.4-2.1-0.7-4.3-1.2-6.4c-0.9-4.4-2-8.8-3.2-13.3c-0.6-2.2-1.3-4.5-2-6.7c-0.8-2.2-1.4-4.5-2.3-6.7
			c-0.8-2.2-1.6-4.4-2.5-6.6c-0.4-1.1-0.9-2.2-1.3-3.3c-0.5-1.1-0.9-2.1-1.4-3.2c-0.9-2.1-1.9-4.2-2.9-6.3c-0.9-2.1-2-4-3.1-6
			c-0.5-1-1-2-1.5-2.9s-1.1-1.9-1.6-2.8c-0.5-0.9-1-1.9-1.6-2.8c-0.6-0.9-1.1-1.8-1.6-2.6c-2.1-3.5-4.3-6.7-6.3-9.7
			c-1-1.5-2.1-2.9-3-4.2c-0.5-0.7-0.9-1.3-1.4-2c-0.5-0.6-0.9-1.2-1.4-1.8c-0.9-1.2-1.7-2.2-2.5-3.3c-0.4-0.5-0.7-1-1.1-1.5
			c-0.4-0.5-0.7-0.9-1.1-1.3c-1.4-1.6-2.4-3-3.1-3.9c-0.7-0.9-1.1-1.4-1.1-1.4s0.5,0.4,1.4,1c0.9,0.7,2.3,1.7,4,3s3.6,3,5.9,5
			c0.6,0.5,1.1,1,1.7,1.6c0.6,0.6,1.1,1.1,1.7,1.7c1.2,1.2,2.4,2.5,3.7,3.8c2.5,2.8,5.2,5.7,7.7,9.1c0.7,0.8,1.3,1.7,2,2.6
			c0.6,0.9,1.3,1.8,1.9,2.7c1.3,1.8,2.6,3.7,3.8,5.7s2.5,4,3.6,6.1c0.6,1.1,1.2,2.1,1.7,3.2c0.6,1.1,1.1,2.2,1.6,3.3
			s1.1,2.2,1.6,3.3s1,2.3,1.4,3.4c1,2.3,1.8,4.6,2.7,6.9c0.9,2.3,1.5,4.7,2.3,7.1c0.7,2.4,1.3,4.8,1.9,7.1c0.5,2.4,1.1,4.7,1.5,7.1
			c0.2,1.2,0.4,2.3,0.6,3.5c0.2,1.2,0.3,2.3,0.5,3.5c0.3,2.3,0.5,4.6,0.8,6.8c0.1,2.2,0.3,4.4,0.4,6.5c0.2,4.2,0.1,8.3-0.1,12
			c-0.2,3.7-0.6,7.1-1,10c-0.4,3-0.9,5.5-1.4,7.6c-0.4,2.1-0.9,3.7-1.2,4.8C593.2,653.4,593,653.9,593,653.9z"/>
	</g>
	<g>
		<path d="M635.3,643.7c0,0-0.6-1.2-1.4-3.5c-0.4-1.1-0.8-2.5-1.2-4.1s-0.8-3.4-1.1-5.4s-0.6-4.2-0.8-6.5c-0.1-1.2-0.1-2.3-0.2-3.6
			c0-1.2,0-2.5,0-3.7c0-1.3,0-2.6,0.1-3.9c0.1-1.3,0.1-2.6,0.3-3.9c0.2-2.6,0.6-5.3,1-8c0.5-2.6,1-5.3,1.7-7.9
			c0.3-1.3,0.7-2.5,1.1-3.8c0.4-1.2,0.7-2.5,1.1-3.7c0.8-2.4,1.7-4.7,2.5-6.8c0.9-2.1,1.9-4.1,2.7-5.9c0.9-1.8,1.7-3.4,2.6-4.8
			c0.9-1.4,1.6-2.6,2.3-3.6c1.3-2,2.1-3,2.1-3s-0.1,1.4-0.5,3.7c-0.2,1.2-0.4,2.5-0.7,4.1s-0.6,3.4-1,5.3c-0.2,1-0.4,2-0.6,3
			c-0.2,1-0.5,2.1-0.6,3.2c-0.4,2.2-0.8,4.5-1.3,6.9c-0.4,2.4-0.8,4.8-1.4,7.3c-0.4,2.5-0.9,5-1.3,7.5c-0.4,2.5-0.8,5-1.2,7.5
			c-0.3,2.5-0.8,4.9-1,7.3c-0.2,1.2-0.3,2.4-0.5,3.5c-0.1,1.1-0.2,2.3-0.4,3.4c-0.2,1.1-0.3,2.2-0.4,3.2c-0.1,1-0.2,2-0.4,3
			c-0.2,1.9-0.4,3.7-0.5,5.3c-0.2,1.6-0.3,3-0.4,4.1c-0.1,1.2-0.2,2.1-0.2,2.7C635.3,643.4,635.3,643.7,635.3,643.7z"/>
	</g>
	<g>
		<g>
			<path class="st0" d="M366.7,555.2c-5.2,7.2-55.5,39.8-70.8,136.6s24.8,12.1,24.8,12.1s-19.7,45.8-6.3,89.2
				c13.5,43.4,22.4-14.9,22.4-14.9s35.1,109.3,219.9,120.5"/>
		</g>
		<g>
			<path d="M366.7,555.2c-1.4,2.2-3.2,4.1-4.9,6.1c-1.7,1.9-3.4,3.9-5.1,5.9c-3.3,3.9-6.5,7.9-9.5,12.1c-3,4.2-5.8,8.4-8.5,12.7
				c-2.6,4.3-5.1,8.7-7.4,13.2s-4.5,9-6.4,13.7c-2,4.6-3.8,9.3-5.5,14L317,640c-0.7,2.4-1.5,4.8-2.2,7.2s-1.4,4.8-2,7.3
				c-0.6,2.4-1.3,4.9-1.8,7.3c-0.5,2.5-1.1,4.9-1.6,7.3l-1.4,7.4l-1.3,7.4c-0.4,2.5-0.7,5-1.1,7.5c-0.7,5-1.3,10-1.8,15
				s-0.9,10-1.1,14.7c-0.1,2.4-0.1,4.7,0.1,6.8c0.1,1,0.2,2,0.3,2.8c0.1,0.4,0.1,0.7,0.2,0.9s0.1,0.3,0,0.1s-0.3-0.8-1.4-1.8
				c-0.5-0.5-1.4-1.1-2.4-1.5s-2.2-0.6-3-0.5c-0.9,0-1.5,0.2-1.9,0.3s-0.7,0.3-0.8,0.3c-0.3,0.2-0.2,0.1-0.1,0
				c0.3-0.2,0.9-0.8,1.5-1.5s1.2-1.5,1.9-2.4c2.6-3.5,5.1-7.8,7.5-12c1.2-2.1,2.4-4.3,3.5-6.5s2.3-4.5,3.3-6.6l19.3,8.7l-0.7,1.7
				l-0.7,1.9c-0.5,1.3-0.9,2.6-1.4,4c-0.9,2.7-1.7,5.4-2.4,8.1c-0.7,2.7-1.4,5.5-2,8.3s-1.1,5.6-1.6,8.4c-0.4,2.8-0.8,5.6-1.1,8.4
				c-0.3,2.8-0.5,5.6-0.6,8.4c-0.1,2.8-0.2,5.6-0.1,8.4c0,1.4,0.1,2.8,0.2,4.2s0.2,2.8,0.3,4.1c0.3,2.8,0.7,5.5,1.1,8.2
				c0.2,1.4,0.5,2.7,0.8,4s0.7,2.7,1,4c0.7,2.7,1.6,5.3,2.5,7.6c0.4,1.1,0.9,2.2,1.3,2.9l0.4,0.7c0,0.1,0,0-0.7-0.4
				c-0.3-0.2-0.8-0.4-1.5-0.5s-1.5-0.1-2.2,0.1c-1.4,0.3-1.9,0.9-2.1,1c-0.1,0.2,0,0.1,0.2-0.2c0.2-0.2,0.5-0.6,0.7-1
				c1.1-1.8,2.1-4.3,3-6.8c0.9-2.6,1.8-5.3,2.5-8.1s1.5-5.7,2-8.4l5.6-26.7l8.5,25.6l0.2,0.7l0.3,0.8l0.7,1.7c0.5,1.2,1,2.3,1.5,3.5
				c1.1,2.3,2.2,4.7,3.5,7c2.5,4.6,5.2,9.1,8.3,13.4c3,4.3,6.2,8.5,9.7,12.6c3.4,4,7,7.9,10.8,11.7c3.8,3.7,7.8,7.3,11.9,10.7
				s8.4,6.7,12.8,9.8s8.9,6,13.5,8.8s9.3,5.4,14.1,7.9c4.8,2.5,9.7,4.8,14.7,7c5,2.1,10,4.2,15.1,6.1c2.5,1,5.1,1.8,7.7,2.8
				c2.6,0.9,5.2,1.7,7.8,2.5c2.6,0.8,5.2,1.6,7.8,2.3l3.9,1.1l4,1c5.3,1.4,10.6,2.6,16,3.8l8.1,1.6l8.1,1.5l8.1,1.3l8.2,1.2l8.2,1
				l8.2,0.9l-8.3-0.2l-8.3-0.4l-8.3-0.6l-8.2-0.7l-8.2-0.9c-2.7-0.4-5.5-0.7-8.2-1.1c-5.5-0.8-10.9-1.7-16.4-2.8l-4.1-0.8l-4.1-0.9
				c-2.7-0.6-5.4-1.2-8.1-1.9c-5.4-1.3-10.8-2.8-16.1-4.4c-5.3-1.6-10.6-3.5-15.8-5.4c-5.2-2-10.4-4.1-15.5-6.4
				c-5.1-2.3-10.1-4.8-15.1-7.4c-4.9-2.7-9.8-5.5-14.6-8.5c-9.5-6-18.6-12.9-27-20.4c-8.4-7.6-16.2-16-23.1-25.1
				c-3.5-4.6-6.7-9.3-9.6-14.3c-1.5-2.5-2.9-5-4.2-7.7c-0.7-1.3-1.3-2.6-1.9-4l-0.9-2.1l-0.4-1.1l-0.2-0.6l-0.2-0.7l14.1-1.1
				c-0.4,3.3-0.8,6.3-1.4,9.5c-0.6,3.1-1.2,6.3-2,9.5c-0.9,3.2-1.8,6.4-3.6,10c-0.5,0.9-1,1.8-1.6,2.9c-0.7,1-1.5,2.1-2.7,3.3
				c-0.6,0.6-1.4,1.2-2.4,1.8s-2.2,1.1-3.6,1.4c-1.4,0.3-3,0.3-4.4,0.1c-1.4-0.3-2.6-0.7-3.6-1.3c-2-1.1-3.2-2.2-4.2-3.2
				c-0.9-1-1.7-2-2.3-2.9c-1.2-1.8-2.1-3.5-2.9-5.1c-1.5-3.3-2.7-6.4-3.7-9.5c-0.5-1.6-1-3.2-1.5-4.8c-0.4-1.6-0.9-3.2-1.3-4.8
				c-0.8-3.2-1.4-6.5-1.8-9.7c-0.2-1.6-0.4-3.3-0.6-4.9c-0.2-1.6-0.3-3.3-0.4-4.9c-0.2-3.3-0.3-6.5-0.3-9.8c0.1-3.3,0.2-6.5,0.5-9.7
				c0.2-3.2,0.6-6.4,1-9.6c0.5-3.2,1-6.4,1.6-9.5c0.6-3.2,1.4-6.3,2.2-9.4c0.8-3.1,1.7-6.2,2.7-9.3c0.5-1.5,1-3.1,1.6-4.6l0.9-2.3
				l0.5-1.2l0.5-1.3l19.3,8.7c-1.2,2.6-2.4,4.9-3.7,7.3c-1.2,2.4-2.5,4.7-3.9,7.1c-2.7,4.7-5.5,9.4-9,14.2c-0.9,1.2-1.9,2.4-3,3.6
				c-1.1,1.2-2.3,2.5-4,3.9c-0.9,0.7-1.9,1.4-3.3,2.2c-0.7,0.4-1.6,0.8-2.6,1.1c-1.1,0.3-2.3,0.6-3.8,0.7c-1.5,0.1-3.3-0.2-4.9-0.8
				s-3.1-1.6-4.1-2.5c-2-1.9-2.9-3.6-3.5-5s-0.9-2.5-1.2-3.6c-0.2-1-0.4-2-0.5-2.9c-0.3-1.8-0.4-3.4-0.4-4.9c-0.1-3.1,0-5.9,0.2-8.7
				c0.4-5.6,1.1-10.9,1.8-16.2c0.8-5.3,1.6-10.5,2.7-15.7c0.5-2.6,1-5.2,1.6-7.8l1.8-7.8l2.1-7.7c0.7-2.6,1.5-5.1,2.3-7.7
				c0.8-2.5,1.7-5.1,2.5-7.6c0.9-2.5,1.9-5,2.8-7.5c1-2.5,2-4.9,3-7.4c1.1-2.4,2.2-4.9,3.3-7.3c2.3-4.8,4.7-9.6,7.4-14.2
				c2.6-4.6,5.5-9.1,8.5-13.5s6.3-8.6,9.6-12.7c3.4-4.1,7-8,10.7-11.7c3.8-3.7,7.7-7.2,11.7-10.5c2-1.6,4.1-3.2,6.2-4.8l3.1-2.4
				C364.8,556.9,365.8,556.2,366.7,555.2z"/>
		</g>
	</g>
	<g>
		<path d="M652.7,647.1c0,0,7.1,35.3,40.6,50.6c0,0-10.3,0.1-15.9-2.1l-14.6-14.7l-15-11.8C647.9,669.1,643.2,659,652.7,647.1z"/>
	</g>
	<g>
		<g>
			<g>
				<path class="st0" d="M816.6,421.5L799,480.9c0,0-63.6-15.8-60.8-18.5s9.8-72.3,10-73.2C748.5,388.2,816.6,421.5,816.6,421.5z"/>
			</g>
			<path class="st1" d="M758.7,461.5c1.6-2.4-3.7-65.5,24.2-111.9s91-67.6,121.6-76.5s82.1-16.9,82.1-16.9s63.6,62.8,77.3,94.2
				s24.2,66,23.4,90.2c-0.8,24.2-5.8,51.6-2.4,50.7s11.3-9.7,11.3-9.7s13.7-49.9,4-78.1s-33.8-86.2-62.8-120s-42-49.8-42-49.8
				S836,275.5,832.8,277.9s-52.3,43.5-52.3,43.5L766,360.1l-12.9,20.1l-10.5,78.1L758.7,461.5z"/>
			<g>
				<g>
					<g>
						<path class="st0" d="M742.8,490.4c0,0-19.3-154.3,74.6-202.9s178-53.8,178-53.8s153.9,142.4,92.9,256.7
							c0,0-76.1-14.2-110.7-64.4S941,326,920.2,323.8c-20.7-2.2-111.8-24.5-125.7,50.6"/>
					</g>
					<g>
						<path d="M730.4,491.9c-0.1-1.3-0.2-2.4-0.3-3.6l-0.3-3.4c-0.2-2.3-0.3-4.5-0.4-6.8c-0.2-4.5-0.3-9-0.4-13.5
							c-0.1-9,0.2-17.9,0.8-26.9c1.2-17.9,3.7-35.8,8-53.4c2.2-8.8,4.8-17.5,8-26.1c1.6-4.3,3.4-8.5,5.3-12.7
							c1.9-4.2,4-8.3,6.3-12.3c4.5-8.1,9.8-15.8,15.8-23c3-3.6,6.2-7,9.6-10.3c3.4-3.2,7-6.4,10.7-9.2c0.9-0.7,1.9-1.4,2.8-2.1
							l2.9-2c2-1.3,3.9-2.6,6-3.8c1-0.6,2-1.2,3.1-1.8l3.1-1.7l1.6-0.9l1.5-0.7l2.9-1.4c3.8-1.9,7.9-3.8,12-5.7
							c4-1.8,8.1-3.6,12.1-5.4c8.1-3.5,16.3-6.7,24.6-9.8c8.3-3.1,16.6-5.9,25-8.5c8.4-2.7,16.9-5.1,25.4-7.3s17.1-4.2,25.7-6
							c8.6-1.8,17.3-3.4,26-4.7c4.4-0.7,8.7-1.2,13.1-1.8c2.2-0.3,4.4-0.5,6.6-0.7c2.3-0.2,4.4-0.4,6.8-0.5l3.4-0.2l2.3,2.2
							c2.4,2.3,4.5,4.4,6.7,6.7c2.2,2.2,4.3,4.5,6.4,6.7c4.2,4.5,8.3,9.1,12.3,13.8c8,9.4,15.7,19,23,28.9
							c14.6,19.9,27.7,41,38.2,63.5c5.2,11.3,9.7,22.9,13.2,34.9s5.9,24.3,6.8,36.9c0.9,12.5,0.3,25.3-2.2,37.6
							c-1.2,6.2-3,12.3-5.1,18.2c-2.2,5.9-4.8,11.7-7.8,17.2l-1.6,2.9l-3.1-0.7c-4.4-0.9-8.4-2-12.6-3.2c-4.1-1.2-8.2-2.5-12.2-3.9
							c-8.1-2.8-16-6-23.8-9.6s-15.3-7.7-22.6-12.2c-7.3-4.6-14.2-9.6-20.7-15.3c-6.5-5.7-12.4-12-17.6-19
							c-2.6-3.5-4.9-7.1-7.1-10.7c-2.2-3.6-4.4-7.3-6.4-11c-4.1-7.5-7.7-15.1-11.1-22.9c-3.4-7.8-6.4-15.7-9.4-23.6
							s-5.8-15.8-9.4-23.2c-1.8-3.7-3.8-7.3-6.5-10.2c-1.3-1.4-2.8-2.7-4.5-3.5c-0.8-0.4-1.7-0.7-2.6-0.9c-0.9-0.2-2-0.3-3-0.4
							c-8.4-1.3-16.6-2.7-24.9-3.7c-8.3-0.9-16.7-1.5-25-1.3s-16.7,1-24.8,3s-16,5.1-22.9,9.7c-7,4.6-12.8,10.8-17.1,18
							s-7,15.3-8.7,23.5c1.5-8.3,4-16.4,8.2-23.8c4.2-7.3,10-13.8,17-18.6c7-4.9,14.9-8.2,23.1-10.4c8.2-2.2,16.7-3.2,25.1-3.5
							c8.5-0.3,16.9,0,25.4,0.8c8.4,0.8,16.8,2.1,25.1,3.2c1,0.1,2,0.2,3.2,0.4c1.2,0.2,2.3,0.6,3.4,1.1c2.2,1,4,2.5,5.5,4.1
							c3.1,3.3,5.3,7.1,7.3,10.9c3.9,7.7,6.9,15.5,10.1,23.3c3.1,7.8,6.3,15.5,9.8,23.1s7.2,15,11.4,22.3c2.1,3.6,4.2,7.2,6.5,10.6
							c2.3,3.5,4.6,6.9,7.1,10.1c5,6.5,10.8,12.3,17.1,17.6c6.3,5.3,13.1,10,20.1,14.2c7.1,4.2,14.5,8,22,11.3
							c7.6,3.3,15.3,6.2,23.2,8.7c3.9,1.3,7.9,2.4,11.9,3.5c4,1,8.1,2,11.9,2.7l-4.7,2.3c2.7-5.2,5-10.6,6.9-16.1s3.3-11.2,4.3-16.9
							c2.1-11.5,2.3-23.3,1.2-34.9c-1.1-11.7-3.7-23.2-7.2-34.5s-8.1-22.3-13.3-32.9c-10.5-21.3-23.6-41.4-38.2-60.4
							c-7.3-9.5-15-18.7-23-27.6c-4-4.4-8.1-8.8-12.2-13.1c-2.1-2.1-4.2-4.3-6.3-6.3c-2.1-2.1-4.3-4.2-6.4-6.1l5.7,2
							c-1.9,0.2-4.1,0.4-6.1,0.6c-2.1,0.3-4.2,0.5-6.3,0.8c-4.2,0.6-8.4,1.2-12.6,2c-8.4,1.5-16.7,3.2-25,5.1
							c-8.3,1.9-16.6,4.1-24.7,6.4c-8.2,2.3-16.3,4.9-24.4,7.6c-8.1,2.8-16.1,5.7-24,8.8c-7.9,3.2-15.8,6.4-23.5,10
							c-3.9,1.7-7.7,3.6-11.5,5.4c-3.8,1.9-7.5,3.7-11.4,5.7l-2.9,1.5l-1.4,0.7l-1.2,0.7l-2.6,1.5c-0.9,0.5-1.7,1-2.5,1.6
							c-1.7,1-3.3,2.2-4.9,3.3l-2.4,1.8c-0.8,0.6-1.6,1.2-2.3,1.8c-3.1,2.4-6,5.1-8.8,7.9s-5.4,5.8-7.9,8.9
							c-4.9,6.2-9.3,12.9-13.1,20.1c-1.9,3.6-3.7,7.2-5.2,10.9c-1.6,3.7-3.1,7.5-4.4,11.4c-2.7,7.7-4.9,15.7-6.7,23.7
							c-3.6,16.1-5.5,32.8-6.2,49.5c-0.3,8.4-0.4,16.7-0.1,25.1c0.1,4.2,0.3,8.4,0.6,12.5c0.1,2.1,0.3,4.1,0.5,6.2l0.3,3.1
							c0.1,1,0.2,2.1,0.3,2.9L730.4,491.9z"/>
					</g>
				</g>
				<g>
					<path d="M805.2,493.8l-16.1-2.1c9.9-77.6,48.9-113.6,79.8-130.2c33.6-17.9,64.6-17.3,67.8-20.9l-0.5,16.2l3.5-3.9l-0.5,7.3
						c-0.3,0-33.4-0.2-63.3,15.9C836.3,397.7,812.5,437.3,805.2,493.8z"/>
				</g>
			</g>
		</g>
		<g>
			<path d="M794.5,374.5c0,0,2.7-16.7,19.6-32.7c16.6-15.7,41.3-20.5,58.1-18.9s49.5,10.4,49.5,10.4s21.2,35.7,28.7,61.4
				c7.6,25.7,33.6,55.8,54.8,71.1c25,18.1,83.9,30.1,83.9,30.1c-2.7,0.1-76.9-33.5-90.8-47.2c-13.8-13.7-37.3-47.9-47.1-72.5
				S933,333.7,933,333.7s-3-6.8-15.8-10.2c-12.8-3.4-31.5-4.4-40.4-4.4s-28.1,1-36.8,4.1s-24.2,9.6-32.6,21
				C796.6,358.9,794.5,374.5,794.5,374.5z"/>
		</g>
	</g>
	<g>
		<g>
			<path class="st0" d="M440.6,422.4l24.7,63c0,0,61.2-26.5,58.1-29.1c-3.2-2.6-18.6-78.3-18.9-79.3
				C504.2,376,440.6,422.4,440.6,422.4z"/>
		</g>
		<g>
			<g>
				<g>
					<path class="st0" d="M522.3,487.7c0,0,0.3-172.8-98.9-212.9s-183.3-33.6-183.3-33.6S37.8,419.7,114.4,520.8
						c0,0,138.8-9.9,167-70.1c28.2-60.2,24.1-115.5,44.4-120.9s108-43.1,130.9,37.7"/>
				</g>
				<g>
					<path d="M510.5,487.8c0-2,0-4.2-0.1-6.4c-0.1-2.2-0.1-4.4-0.2-6.6c-0.2-4.4-0.5-8.8-0.8-13.2c-0.7-8.8-1.7-17.6-2.9-26.3
						c-1.2-8.7-2.8-17.4-4.6-26c-1.8-8.6-4-17.1-6.5-25.5s-5.4-16.6-8.6-24.6c-3.3-8-7-15.8-11.3-23.2c-1-1.9-2.2-3.7-3.3-5.5
						c-1.2-1.8-2.3-3.6-3.5-5.3c-2.4-3.5-4.9-6.9-7.6-10.2c-2.7-3.3-5.5-6.3-8.5-9.3c-3-2.9-6.1-5.7-9.3-8.3
						c-6.5-5.1-13.6-9.5-21.2-12.8c-0.9-0.4-1.9-0.9-2.8-1.2l-3.2-1.3c-2.1-0.8-4.2-1.7-6.3-2.5c-4.1-1.6-8.2-3.1-12.4-4.6
						c-4.2-1.5-8.4-2.9-12.6-4.3c-4.2-1.3-8.5-2.7-12.8-3.9c-8.5-2.5-17.1-4.7-25.8-6.7c-17.3-4-34.9-7-52.6-9
						c-8.8-1-17.7-1.7-26.6-2.1c-4.4-0.2-8.9-0.3-13.3-0.4c-2.2,0-4.4,0-6.6,0c-2.2,0-4.5,0.1-6.4,0.2l4.4-1.8
						c-5,4.4-10.1,9.1-15,13.8c-4.9,4.7-9.8,9.5-14.6,14.3c-9.6,9.7-19,19.7-28,29.9c-18.1,20.5-35,41.9-49.7,64.9
						c-7.3,11.5-14,23.3-19.7,35.5s-10.4,24.9-13.3,37.9s-3.9,26.4-2,39.3c1,6.5,2.7,12.8,5.2,18.8s5.8,11.7,9.7,17l-3.6-1.7
						c9.7-0.7,19.5-1.9,29.2-3.3c9.7-1.4,19.4-3.2,29-5.2c9.6-2.1,19.1-4.5,28.5-7.3s18.6-6.1,27.6-10c8.9-3.9,17.6-8.4,25.5-14
						c7.9-5.5,15.1-12,20.5-19.8c1.3-2,2.6-4,3.6-6.1l0.8-1.6l0.8-1.7l1.5-3.3c2-4.5,3.9-9,5.7-13.6c3.5-9.2,6.6-18.5,9.3-28
						c2.7-9.5,5-19.1,7.3-28.7c1.2-4.8,2.3-9.7,3.6-14.5c1.3-4.8,2.6-9.7,4.4-14.4c0.9-2.4,1.9-4.7,3.1-7c1.3-2.3,2.7-4.5,4.8-6.3
						c1-0.9,2.1-1.7,3.4-2.4c1.2-0.6,2.7-1,3.8-1.3c2.3-0.7,4.7-1.4,7.1-2.1c9.5-3,19.1-5.7,28.9-7.6s19.8-3.1,29.8-2.8
						c10,0.3,20,2.1,29.2,6.2c4.6,2.1,8.8,4.7,12.7,7.9c3.8,3.2,7.3,6.8,10.2,10.9c5.9,8.1,9.8,17.4,12.4,26.9
						c-2.8-9.5-6.9-18.7-12.9-26.6c-3-4-6.4-7.5-10.3-10.6c-3.9-3-8.1-5.6-12.6-7.5c-9-3.9-18.9-5.5-28.7-5.6
						c-9.8-0.1-19.7,1.2-29.3,3.3c-9.6,2.1-19.1,5-28.5,8.1c-2.4,0.8-4.7,1.6-7.1,2.3c-1.3,0.4-2.2,0.6-3.2,1.2
						c-1,0.5-1.8,1.2-2.7,1.9c-3.2,3.1-5.2,7.7-6.8,12.2c-1.6,4.6-2.8,9.3-4,14.1c-1.1,4.8-2.2,9.6-3.2,14.5
						c-2.1,9.7-4.2,19.4-6.8,29.1c-2.5,9.6-5.4,19.2-8.8,28.6c-1.7,4.7-3.5,9.4-5.5,14l-1.5,3.4l-0.8,1.7l-0.9,1.8
						c-1.1,2.4-2.5,4.6-3.9,6.8c-5.8,8.6-13.4,15.7-21.7,21.7c-8.3,5.9-17.2,10.8-26.4,15s-18.6,7.7-28.2,10.7
						c-9.6,3-19.2,5.6-29,7.9c-9.8,2.2-19.6,4.1-29.4,5.7c-9.9,1.6-19.7,2.9-29.8,3.8l-2.2,0.2l-1.4-1.8c-4.4-5.7-8.2-12-11.1-18.6
						s-5-13.7-6.2-20.8c-1.2-7.1-1.6-14.4-1.3-21.6c0.3-7.2,1.2-14.3,2.6-21.3c2.8-14,7.5-27.4,13.2-40.3s12.4-25.3,19.7-37.2
						c14.6-23.9,31.5-46.2,49.5-67.4c9-10.6,18.4-20.9,28-31c4.8-5,9.7-10,14.6-14.9c5-4.9,9.9-9.7,15.2-14.5l1.8-1.6l2.6-0.2
						c2.6-0.2,4.8-0.3,7.2-0.4c2.3-0.1,4.7-0.1,7-0.2c4.6,0,9.3,0,13.9,0.1c9.2,0.3,18.4,0.8,27.6,1.7c18.4,1.7,36.6,4.5,54.7,8.2
						c9,1.9,18,4,26.9,6.4c4.5,1.2,8.9,2.5,13.3,3.8c4.4,1.4,8.8,2.7,13.2,4.2c4.4,1.4,8.8,3,13.2,4.6c2.2,0.8,4.3,1.6,6.4,2.4
						l3.2,1.2c1.2,0.4,2.3,0.9,3.4,1.4c9.1,3.8,17.7,8.9,25.5,14.8c3.9,3,7.6,6.2,11.2,9.5c3.5,3.4,6.9,6.9,10,10.6
						s6.1,7.5,8.9,11.4c1.4,1.9,2.7,4,4.1,6c1.3,2,2.6,4,3.8,6.1c4.9,8.2,9.2,16.7,13,25.4c3.7,8.7,7,17.5,9.9,26.4s5.3,18,7.4,27
						c2.1,9.1,3.9,18.2,5.4,27.4c1.5,9.2,2.7,18.4,3.6,27.7c0.5,4.6,0.8,9.3,1.2,13.9c0.2,2.3,0.3,4.7,0.4,7
						c0.1,2.4,0.2,4.6,0.2,7.2L510.5,487.8z"/>
				</g>
			</g>
			<g>
				<path d="M460.3,500.1c-14.1-61.3-43.4-101.7-87-120c-32.7-13.7-61.9-9.3-62.2-9.3l-2.7-16.9c1.4-0.2,33.6-5.2,70.6,10.1
					c34,14,78.6,48.3,97.9,132.3L460.3,500.1z"/>
			</g>
		</g>
	</g>
	<g>
		<path d="M492.1,442.9c0,0-40-93.5-58.8-108.7c-18.4-14.9-43.5-16.6-60-12.5c-16.5,4.2-47.8,18.6-47.8,18.6s-16.7,42.4-21,71.8
			c-4.4,29.4-23.7,56-42.8,75.8c-11.3,11.8-48.4,26.2-82.2,32.8c-33.9,6.5-64.7,5.1-64.7,5.1c2.7-0.3,138.2-39,150.2-56
			c12.1-17.1,29.7-49.4,36.3-78s12.9-49.5,12.9-49.5s2.1-7.9,14.5-13.6c12.3-5.6,30.7-9.3,39.6-10.6c8.9-1.3,28-3,37-0.8
			c9.1,2.2,21.8,5.3,34.9,18.5C460.8,356.6,492.1,442.9,492.1,442.9z"/>
	</g>
	<g>
		<path d="M581.2,720.5c0,0-1.8,1.8-5.5,4.5c-1.8,1.3-4.1,2.9-6.8,4.5s-5.8,3.4-9.4,5c-3.5,1.7-7.4,3.4-11.6,4.9
			c-4.2,1.6-8.7,3-13.5,4.2c-2.4,0.6-4.8,1.2-7.3,1.7c-1.2,0.2-2.5,0.5-3.7,0.7c-1.3,0.2-2.5,0.4-3.8,0.6c-1.3,0.2-2.5,0.4-3.8,0.5
			c-1.3,0.2-2.6,0.3-3.9,0.5c-2.6,0.2-5.2,0.5-7.8,0.6c-2.6,0.1-5.2,0.2-7.8,0.2c-1.3,0-2.6,0-3.9,0s-2.6,0-3.9-0.1
			c-5.1-0.2-10.2-0.6-15-1.2c-2.4-0.3-4.8-0.6-7.1-1c-2.3-0.4-4.6-0.8-6.8-1.2c-2.2-0.4-4.3-0.9-6.3-1.4s-4-0.9-5.9-1.5
			c-1.9-0.5-3.7-1-5.4-1.5c-1.7-0.5-3.3-1.1-4.8-1.6c-3-1-5.6-1.9-7.7-2.7c-4.2-1.6-6.6-2.6-6.6-2.6s2.5,0.5,6.9,1.5
			c2.2,0.5,4.9,1,7.9,1.7c3.1,0.7,6.5,1.2,10.3,1.9c1.9,0.4,3.9,0.6,5.9,0.9c2,0.3,4.1,0.7,6.3,0.9c2.2,0.3,4.4,0.5,6.7,0.8
			c2.3,0.2,4.6,0.4,7,0.6c4.7,0.3,9.7,0.6,14.6,0.7c5,0.1,10,0,15.1-0.3c2.5-0.2,5-0.3,7.6-0.6c2.5-0.3,5-0.5,7.5-0.8
			c4.9-0.6,9.8-1.5,14.4-2.4c4.6-1,9.1-2.1,13.3-3.3s8.1-2.5,11.7-3.8c3.6-1.3,6.8-2.7,9.7-3.9c2.8-1.3,5.3-2.5,7.3-3.5
			c2-1.1,3.5-1.9,4.6-2.5C580.6,720.9,581.2,720.5,581.2,720.5z"/>
	</g>
	<g>
		<g>
			<path class="st0" d="M560.2,459.5c0,0,60-125.4,129.2-115.2c69.2,10.2-15.8,42.6-41.5,68.4c25.9-11.9,59.3-22.4,97.8-13
				c-45.7,19.2-71.9,46.7-71.9,46.7s87-5.6,120.8,64.1c0,0-98.7-22.1-139.9-11.9"/>
		</g>
		<g>
			<path d="M560.2,459.5c2.3-5.9,5-11.6,7.8-17.4c2.8-5.7,5.8-11.3,8.8-16.9c3.1-5.6,6.3-11.1,9.8-16.5c3.4-5.4,7-10.7,10.8-15.9
				c3.8-5.2,7.8-10.2,12-15.1c4.3-4.9,8.7-9.6,13.5-14.1c2.4-2.3,4.9-4.4,7.4-6.5c2.6-2.1,5.2-4.1,8-6s5.6-3.7,8.6-5.3
				c3-1.7,6.1-3.2,9.3-4.5c6.4-2.6,13.3-4.5,20.4-5.2c3.6-0.4,7.2-0.4,10.8-0.1l2.7,0.3c1,0.1,1.6,0.2,2.5,0.3
				c1.7,0.2,3.3,0.5,5,0.8c3.4,0.6,6.7,1.3,10.3,2.5c1.8,0.6,3.6,1.2,5.5,2.2c1.9,0.9,3.9,2.1,6,4c1,1,2.1,2.2,3,3.7s1.7,3.3,2,5.2
				c0.3,1.9,0.3,3.8,0,5.5c-0.3,1.6-0.8,3.1-1.4,4.3c-1.1,2.5-2.4,4.3-3.7,5.9s-2.6,3-3.9,4.3c-5.3,5.1-10.6,9-15.9,12.8
				c-5.3,3.8-10.6,7.3-15.9,10.8c-5.2,3.5-10.4,6.9-15.3,10.5c-4.9,3.5-9.6,7.2-13.3,10.9l-11.4-16.3c7.9-3.7,16-7,24.4-9.8
				s17.1-5,26-6.4c2.2-0.3,4.5-0.7,6.7-0.9c2.2-0.2,4.5-0.4,6.8-0.6c2.3-0.1,4.5-0.2,6.8-0.2h3.4l3.4,0.1c2.3,0.1,4.5,0.2,6.8,0.4
				c2.3,0.2,4.5,0.4,6.8,0.8c2.3,0.3,4.5,0.7,6.7,1.1s4.4,0.9,6.7,1.4l30.7,7.1l-29.1,13l-4.7,2.1c-1.6,0.7-3.2,1.4-4.7,2.1
				l-4.6,2.2c-1.6,0.7-3.1,1.6-4.6,2.4s-3.1,1.6-4.6,2.4l-4.5,2.6c-1.5,0.8-3,1.7-4.4,2.6c-1.5,0.9-3,1.8-4.4,2.7l-4.3,2.8l-4.2,2.9
				c-1.4,1-2.8,2-4.2,3s-2.8,2-4.1,3.1c-1.4,1-2.7,2.1-4,3.2s-2.6,2.2-3.9,3.3c-1.3,1.1-2.6,2.2-3.8,3.3c-0.6,0.6-1.2,1.1-1.8,1.7
				l-0.9,0.8l-0.7,0.7l-8.1-17.3l1.4-0.1h1.3h2.5c1.6,0,3.2,0.1,4.9,0.1c3.2,0.1,6.4,0.3,9.6,0.7c6.4,0.7,12.7,1.6,18.9,3
				c6.2,1.3,12.4,3,18.5,5.1s12,4.6,17.8,7.5c2.9,1.5,5.7,3,8.5,4.7s5.5,3.5,8.1,5.4s5.2,3.9,7.7,6s4.8,4.4,7.1,6.7
				c2.3,2.3,4.4,4.8,6.5,7.3c2,2.5,4,5.1,5.8,7.8c1.8,2.7,3.5,5.4,5.1,8.3c1.6,2.8,3,5.7,4.3,8.6l6.5,14l-14.7-3.8
				c-2.7-0.7-5.6-1.4-8.4-2.1l-8.5-2c-5.7-1.3-11.4-2.6-17.1-3.8c-5.7-1.2-11.4-2.4-17.2-3.5c-5.7-1.1-11.5-2.2-17.3-3.1
				c-5.8-1-11.5-1.9-17.3-2.7c-5.8-0.8-11.6-1.5-17.4-2c-5.8-0.5-11.7-0.8-17.5-0.9c-2.9,0-5.8,0-8.8,0.2c-2.9,0.2-5.8,0.4-8.8,0.9
				c5.6-1.9,11.5-2.9,17.4-3.7c5.9-0.8,11.8-1.1,17.8-1.3c3-0.1,5.9-0.1,8.9-0.1s5.9,0,8.9,0.1c5.9,0.2,11.9,0.5,17.8,0.9
				c5.9,0.4,11.8,0.9,17.7,1.5s11.8,1.3,17.7,2s11.8,1.6,17.6,2.5l8.8,1.4c2.9,0.5,5.8,1,8.8,1.5l-8.1,10.3
				c-1.3-2.5-2.7-4.9-4.2-7.3s-3.1-4.6-4.8-6.9c-1.7-2.2-3.5-4.3-5.4-6.4c-1.9-2-3.8-4-5.9-5.9c-2.1-1.9-4.1-3.7-6.3-5.4
				c-2.2-1.7-4.4-3.3-6.8-4.8c-4.7-3-9.6-5.7-14.6-8c-5.1-2.3-10.3-4.3-15.7-5.9s-10.9-3-16.5-4s-11.2-1.7-16.9-2.2
				c-2.8-0.2-5.6-0.4-8.5-0.4c-1.4,0-2.8,0-4.2,0h-2h-1h-0.8l-26.5,1.5l18.4-18.8l1.2-1.2l1.1-1c0.7-0.7,1.4-1.3,2.1-2
				c1.4-1.3,2.8-2.6,4.2-3.8c1.4-1.2,2.9-2.5,4.3-3.7c1.4-1.2,2.9-2.4,4.4-3.5c1.5-1.2,2.9-2.3,4.5-3.4c1.5-1.1,3-2.3,4.5-3.3
				l4.6-3.2l4.7-3.1c1.5-1.1,3.2-2,4.8-3s3.2-2,4.8-2.9l4.9-2.8c1.6-0.9,3.3-1.8,4.9-2.7c1.7-0.9,3.3-1.8,5-2.6l5-2.5
				c1.7-0.9,3.4-1.6,5.1-2.3l5.1-2.3l1.6,20c-1.9-0.4-3.8-0.9-5.6-1.2c-1.9-0.4-3.8-0.7-5.7-1s-3.8-0.5-5.7-0.7s-3.8-0.3-5.8-0.4
				l-2.9-0.1h-2.9c-1.9,0-3.9,0.1-5.8,0.2c-3.9,0.2-7.7,0.6-11.5,1.2c-7.7,1.1-15.3,2.9-22.9,5.3c-7.5,2.4-15,5.3-22.4,8.6
				l-51.6,22.8l40.3-39.1c5.4-5.2,10.8-9.1,16.2-12.9c5.4-3.7,10.9-7.1,16.2-10.5c5.4-3.4,10.7-6.6,15.8-10s10.1-6.8,14-10.4
				c1-0.9,1.8-1.8,2.6-2.6c0.7-0.8,1.2-1.6,1.5-2c0.1-0.2,0.1-0.3,0.1-0.2c0,0.1,0,0.4,0.1,0.7c0.1,0.3,0.2,0.7,0.3,0.8
				c0.1,0.2,0.1,0.1,0,0c-0.2-0.3-0.9-0.8-1.8-1.3c-0.9-0.5-2-1-3.3-1.4c-2.4-0.9-5.2-1.6-8-2.3c-1.4-0.3-2.9-0.6-4.3-0.9
				c-0.7-0.1-1.6-0.3-2.2-0.4l-2-0.3c-2.7-0.3-5.4-0.5-8.1-0.4c-5.5,0.2-11,1.3-16.4,3.2c-2.7,0.9-5.4,2-8,3.3
				c-2.6,1.2-5.2,2.6-7.8,4.2c-5.1,3-10,6.5-14.8,10.3s-9.3,7.9-13.7,12.2c-4.4,4.3-8.7,8.8-12.8,13.5s-8.1,9.5-12,14.4
				s-7.7,9.9-11.3,15c-3.7,5.1-7.2,10.4-10.7,15.6C566.7,448.6,563.4,454,560.2,459.5z"/>
		</g>
	</g>
	<path class="st4" d="M396.6,597.5c-4.7-0.3,1.8,67.9,24.1,91.1c22.3,23.2,51.8,36.6,79.5,29.5s69.7-17.9,69.7-17.9
		s29-10.3,18.5-16.8S485.9,602.9,396.6,597.5z"/>
	<g>
		<path d="M596.8,695.1c1.6,1.1,2.5,1.6,2.5,1.6s-0.6-0.8-1.8-2.3s-2.9-3.7-5.2-6.5c-1.1-1.4-2.4-2.9-3.9-4.5
			c-1.4-1.6-3-3.3-4.7-5.1c-1.7-1.9-3.6-3.7-5.6-5.6c-2-2-4.1-4-6.4-6.1c-2.3-2-4.7-4.1-7.2-6.3c-1.2-1.1-2.5-2.2-3.9-3.2
			c-1.3-1.1-2.7-2.1-4.1-3.2c-1.4-1.1-2.8-2.2-4.2-3.3c-1.5-1.1-2.9-2.1-4.4-3.2c-3-2.2-6.1-4.3-9.3-6.4c-1.6-1.1-3.2-2.1-4.9-3.2
			c-1.6-1.1-3.4-2-5.1-3.1c-1.7-1-3.4-2-5.1-3.1c-1.7-1-3.5-1.9-5.3-2.9s-3.6-1.9-5.4-2.9c-1.8-0.9-3.7-1.8-5.5-2.7
			c-3.7-1.8-7.4-3.5-11.2-5.2c-3.7-1.7-7.6-3.2-11.4-4.7c-1.9-0.8-3.8-1.5-5.7-2.1c-1.9-0.7-3.8-1.4-5.7-2
			c-3.8-1.3-7.6-2.6-11.5-3.6c-1.9-0.6-3.8-1.1-5.7-1.6c-1.9-0.5-3.8-1-5.6-1.5c-7.5-1.9-14.8-3.4-21.7-4.6c-7-1.1-13.6-2-19.7-2.5
			s-11.7-0.8-16.7-0.9c-5-0.1-9.3,0-12.9,0.2s-6.4,0.5-8.3,0.7s-2.9,0.4-2.9,0.4s4,0.7,10.9,2.2c1.7,0.4,3.6,0.8,5.6,1.3
			c-4.2,14.7-3.6,50.3,14.4,83.6c16.8,31,98.1,66.4,169.2,26.8c5-2.6,9.7-5.6,14.3-9.1c1.6-1.2,3.3-2.4,4.9-3.7c0,0-0.2,0-0.5,0.1
			c1.8-1.5,3.5-3.1,5.2-4.7C594.2,693.3,595.7,694.4,596.8,695.1z M426,610c6.5,2,13.3,4.1,20.3,6.6c3.5,1.2,7,2.5,10.6,3.7
			c1.8,0.6,3.6,1.3,5.4,2s3.6,1.3,5.4,2c7.2,2.9,14.5,5.8,21.7,9l5.4,2.4c1.8,0.8,3.6,1.7,5.3,2.5c1.8,0.8,3.5,1.7,5.3,2.5
			c1.7,0.9,3.5,1.7,5.2,2.6c3.5,1.7,6.9,3.5,10.3,5.2c3.4,1.7,6.7,3.5,9.9,5.3c1.6,0.9,3.3,1.7,4.8,2.6c1.6,0.9,3.1,1.8,4.7,2.7
			c1.6,0.9,3.1,1.7,4.6,2.6c1.5,0.9,3,1.8,4.4,2.7c5.9,3.4,11.3,6.9,16.4,10.1c2.5,1.6,4.9,3.2,7.2,4.7s4.5,2.9,6.5,4.3l0,0
			c-31.8,29.1-78.7,29.9-132.6,2c-42.7-22.1-42.5-66.6-41.3-81.1c0.6,0.2,1.2,0.3,1.8,0.5C413.3,606.3,419.5,608.1,426,610z"/>
	</g>
	<path class="st4" d="M648.7,664.6c4.8-5.6,5.6-25.5,32.7-57.4s89.2-54.2,91.6-55.8s59-15.1,56.6-9.6s10.4,53.4-1.6,87.6
		c-12,34.3-21.5,48.6-36.6,58.2c-15.1,9.6-47,28.7-51.8,26.3S691,703.6,691,703.6s-20.7-15.9-23.1-18.3S648.7,664.6,648.7,664.6z"/>
	<path class="st5" d="M814.6,543c0,0,8.5,62.7-27.4,100s-121.3,37.9-121.3,37.9s-16.8-11.4-13.3-25.1c4.5-17.7,30.6-39.8,41.3-51.6
		C712.8,583.2,769.9,560.6,814.6,543z"/>
	<g>
		<path d="M862,532.7c-2.1-0.1-5.1-0.4-9-0.5c-1.9,0-4.1-0.2-6.4-0.2c-2.3,0-4.9,0.1-7.6,0.2c-2.7,0.1-5.6,0.1-8.6,0.3
			c-3,0.3-6.2,0.6-9.5,0.9c-1.7,0.2-3.4,0.4-5.1,0.5c-1.7,0.3-3.5,0.5-5.3,0.8c-3.6,0.6-7.3,1.2-11,1.9c-3.8,0.9-7.6,1.8-11.6,2.7
			c-2,0.4-4,1.1-5.9,1.7c-2,0.6-4,1.2-6,1.8c-1,0.3-2,0.6-3.1,0.9c-1,0.3-2,0.7-3,1.1c-2,0.8-4.1,1.5-6.1,2.3
			c-4.2,1.4-8.2,3.3-12.4,5.1c-8.3,3.6-16.4,8.1-24.4,12.8c-2,1.2-3.9,2.5-5.9,3.8c-1.9,1.3-3.9,2.6-5.8,3.9
			c-1.9,1.4-3.8,2.8-5.7,4.2l-2.8,2.1c-0.9,0.7-1.8,1.5-2.7,2.2c-1.8,1.5-3.6,3-5.4,4.4c-1.8,1.5-3.4,3.1-5.2,4.7
			c-3.4,3-6.6,6.3-9.8,9.6c-6.2,6.6-11.9,13.2-16.9,20c-2.5,3.3-4.8,6.7-7,10c-1.1,1.7-2.1,3.3-3.1,5c-1,1.6-2,3.2-2.9,4.8
			c-3.7,6.4-6.7,12.5-9.2,18c-0.5,1.2-1,2.3-1.5,3.5c0,0-0.2,0.4-0.5,1.2c-1.5,3.7-2.7,7.1-3.7,10c-1.4,4.1-2.2,7.5-2.8,9.7
			c-0.6,2.3-0.8,3.5-0.8,3.5s0.5-1.1,1.6-3.1c1-2,2.7-4.9,4.8-8.5c0.9-1.5,2-3.2,3.1-5c3.5,9.2,11.5,24.9,27.1,35.7
			c0.4,0.5,0.9,1,1.3,1.5c3.4,3.8,7.2,7.6,11.3,11.2c2.1,1.8,4.1,3.7,6.4,5.4c1.1,0.9,2.2,1.8,3.3,2.7c1.1,0.8,2.3,1.7,3.4,2.5
			c2.3,1.7,4.7,3.3,7.1,4.9c2.4,1.5,4.9,3,7.3,4.5c5,2.8,10,5.5,15.1,7.8c5.1,2.4,10.2,4.3,15.1,6.1c2.5,0.8,4.9,1.7,7.4,2.4
			c2.4,0.7,4.8,1.3,7.1,1.9c2.3,0.6,4.6,1.1,6.8,1.6s4.3,0.9,6.4,1.2c2,0.3,4,0.7,5.9,1s3.7,0.4,5.3,0.6c3.3,0.4,6.3,0.7,8.7,0.8
			c4.8,0.3,7.6,0.3,7.6,0.3s-2.7-0.7-7.4-1.7c-2.4-0.5-5.2-1.3-8.4-2.1c-3.3-0.8-6.9-1.8-10.9-2.9c-2-0.5-4-1.2-6.1-1.9
			s-4.3-1.3-6.5-2.1s-4.5-1.6-6.8-2.4c-2.3-0.9-4.7-1.8-7.1-2.7c-4.8-1.9-9.6-4.1-14.5-6.5s-9.8-5-14.6-7.7
			c-2.4-1.4-4.8-2.9-7.1-4.3c-2.3-1.6-4.7-3-6.9-4.6c-4.3-3-8.5-6.1-12.4-9.3c6.7,2.2,14.3,3.5,23,3.5c0.5,0,1,0,1.4,0
			c1.4,0,2.7-0.1,4-0.1c53.5,3.7,91.5-16.5,114.6-58.1c23.5-42.4,12.8-104.5,9.7-119.5c2.1-0.5,4.1-1,5.9-1.5c2.3-0.6,4.3-1,6.2-1.4
			c3.8-0.8,6.7-1.6,8.8-2.1c2-0.5,3.1-0.8,3.1-0.8S864.1,532.9,862,532.7z M661,646.1c2.1-2.8,4.5-5.5,6.8-8.4
			c2.5-2.8,4.9-5.7,7.6-8.5c5.3-5.8,11.2-11.5,17.3-17.2c6.3-5.6,12.9-11.1,19.9-16.3c0.9-0.7,1.7-1.3,2.6-2l2.7-1.9
			c1.8-1.2,3.6-2.5,5.4-3.8c1.8-1.2,3.7-2.4,5.5-3.6c1.9-1.2,3.7-2.4,5.6-3.5c7.5-4.5,15.1-8.8,22.8-12.6s15.4-7.2,23-10.3
			c3.8-1.5,7.5-3,11.2-4.4c3.7-1.3,7.3-2.6,10.9-3.8c3.5-1.2,7.1-2.2,10.4-3.3c1.7-0.5,3.3-1.1,5-1.6c1.6-0.4,3.3-0.9,4.8-1.3
			c0.5-0.1,0.9-0.3,1.4-0.4c0.9,25.2-0.4,45.4-0.4,45.7v0.3c-1.6,42.5-13.8,72-37.4,90c-17.8,13.6-41.8,20.5-73.4,21
			c-46.1,0.8-56.1-40.9-56.5-42.7c0,0-1.4-3.2,0.3-5.6C657.9,650.1,659.4,648.1,661,646.1z"/>
	</g>
	<path class="st5" d="M879,582.5c-6.5-9.8-23.1-32.9-45.7-46.2l-2.7,106.9c0,0-39.4,48.4-44.8,49.3s-54.7,14.3-58.3,13.4
		c-3.6-0.9-34.6-1.2-36.6-2.4S647.8,669,647.8,669c0.9-4.5,5.2-44.7,62.6-82.4c53.6-35.2,114.3-49.2,122-50.9
		C806,515.3,783,505.6,783,505.6l-61.5-2.8l-58-0.8l-40-0.8c0,0,59.9-23.4,108.8-23.4c0,0-56.7-17.1-116.4,1.5
		c0,0,20.5-28.3,40.1-42c0,0-55.7,22.5-69.4,34.2c0,0,10.8-36.2,35.2-59.6c24.4-23.5,54.7-43,41.1-41.1
		c-13.7,2-64.5,24.4-89.9,101.7l-4.4,13c0,0-34.6-5.1-71.8,5.5c-0.5-28.2-9.3-56.4-18-78.6c-19.9-51.1-30.4-74.6-51.6-83.9
		c-21.2-9.2-49.8-12.9-83.9-2.8s-32.5,36.7-32.5,36.7s57.7-3,76.2,10.8c18.4,13.8,36.6,22.8,58.8,57.6
		c10.5,16.5,19.6,43.5,22.8,57.6c1.6,7-1.4,2.5,0,7.9c-10.7,3.7-32.3,6.8-52.1,22.3c-19.9,15.5-58.5,55.5-81,112.2
		s-4.9,43.5-1.3,41.2s22.8-20.7,22.8-20.7s-29.3,65.5-25.4,89s23.5-22.5,23.5-22.5s-6.8,31.3,15.6,73.3
		c22.5,42,72.3,62.6,104.6,73.3c32.3,10.8,65.5,13.7,65.5,13.7s9.8,32.3,48.9,54.7c39.1,22.5,78.4,7.7,96-14.7
		c17.6-22.5,25.2-39,25.2-39s66.5-4.9,103.6-30.3c37.1-25.4,65.5-58.7,71.4-81.1c5.9-22.5,7.8-42,7.8-42s4.9,31.3,11.7,21.5
		s-1-88-1-88s7.8,27.4,15.6,22.5C927.8,676.9,893.9,604.7,879,582.5z M474.7,715.9c-15.2,0-37.5-5.2-60.1-34.1
		c-22.5-28.9-28.8-79.6-20.2-80c91-4.7,189.2,76.6,190.5,81.8c1.3,5.2-30.5,26.9-38.6,31.4C538.3,719.4,489.9,715.9,474.7,715.9z
		 M418.7,603.3c0,0,2.4,40.1,45.4,69s111.9,6.8,111.9,6.8s-15.8-17.9-38.8-34.5S466,611.1,418.7,603.3z M671.8,876.7l-16.1,18
		c0,0-34.8,10.6-39.1,10.6s-23,2.5-28.6-2.5s-20.5-30.4-21.1-32.3c-0.6-1.9-9.3-77-9.3-77s1.9-10.6,26.1-13.7
		c24.2-3.1,55.3-5.6,55.3-5.6l45.9,16.1L671.8,876.7z"/>
	<path class="st5" d="M774.8,474.8c0-1.6,4.7-67.3,25-115.6c9.6-22.8,36.4-33.3,36.4-33.3s18.7-4.7,29.7-5.7
		c10.9-1.1,37.5,5.7,37.5,5.7s21.9,4.7,23.4,5.7s21.6,16.6,11.8,17.4s-33.2,7.1-35.3,7.6s-49.4,19.8-51.5,21.3
		c-2.1,1.6-19.3,19.8-20.8,21.9c-1.6,2.1-11.4,20.3-14.1,24.5c-2.6,4.2-25,70.3-25,70.3L774.8,474.8z"/>
	<path class="st5" d="M578.5,875.6c0,0,21.2-2.3,36.3,2.8c20.5,7,28.4,21.2,28.4,21.2s-23.4,13.9-33.5,6.9
		C599.7,899.6,578.5,875.6,578.5,875.6z"/>
</g>
</svg>
